<svg xmlns="http://www.w3.org/2000/svg" viewBox="0 0 135.9 54.2"><defs><style>.cls-1{fill:#fff;}.cls-2{fill:#91c30c;}.cls-3{fill:#48515d;}</style></defs><title>Ресурс 1</title><g id="Слой_2" data-name="Слой 2"><g id="Слой_1-2" data-name="Слой 1"><path class="cls-1" d="M1.3,0H134.6a1.32,1.32,0,0,1,1.3,1.3V52.9a1.32,1.32,0,0,1-1.3,1.3H1.3A1.32,1.32,0,0,1,0,52.9V1.3A1.32,1.32,0,0,1,1.3,0Z"/><rect class="cls-2" x="8.12" y="8.28" width="37.65" height="37.65"/><path class="cls-2" d="M53.45,17.4v-1h2.47v2.27a3.08,3.08,0,0,1-1.05.61,3.65,3.65,0,0,1-1.38.27,3.13,3.13,0,0,1-1.56-.38,2.36,2.36,0,0,1-1-1.07,3.27,3.27,0,0,1-.33-1.51A3.21,3.21,0,0,1,51,15a2.46,2.46,0,0,1,1.09-1,2.85,2.85,0,0,1,1.35-.28,2.65,2.65,0,0,1,1.65.44,2,2,0,0,1,.77,1.22l-1.14.21a1.32,1.32,0,0,0-.45-.64,1.39,1.39,0,0,0-.83-.24,1.54,1.54,0,0,0-1.19.49,2,2,0,0,0-.44,1.41,2.22,2.22,0,0,0,.45,1.51,1.48,1.48,0,0,0,1.18.5,2.26,2.26,0,0,0,.72-.15,2.51,2.51,0,0,0,.61-.31V17.4Z"/><path class="cls-2" d="M56.75,16.66A3.56,3.56,0,0,1,57,15.18a2.42,2.42,0,0,1,.52-.74,2.23,2.23,0,0,1,.73-.49,3.06,3.06,0,0,1,1.23-.23,2.68,2.68,0,0,1,2,.78,3,3,0,0,1,.76,2.16,2.77,2.77,0,0,1-2.5,3,2.82,2.82,0,0,1-2.26-.85A2.92,2.92,0,0,1,56.75,16.66Zm1.17,0a2.14,2.14,0,0,0,.45,1.48,1.53,1.53,0,0,0,2.16.09h0l.09-.09a2.18,2.18,0,0,0,.44-1.48,2.17,2.17,0,0,0-.43-1.48,1.58,1.58,0,0,0-2.24,0h0l0,0a2.18,2.18,0,0,0-.44,1.48h0Z"/><path class="cls-2" d="M63.13,13.79h2.1a3.93,3.93,0,0,1,1.08.11,1.91,1.91,0,0,1,.85.54,2.38,2.38,0,0,1,.54.92,4,4,0,0,1,.19,1.34,3.81,3.81,0,0,1-.17,1.21,2.46,2.46,0,0,1-.61,1,2.07,2.07,0,0,1-.8.46,3.85,3.85,0,0,1-1,.11H63.14V13.79h0Zm1.15,1v3.76h.85a3.3,3.3,0,0,0,.7-.05,1,1,0,0,0,.46-.24,1.22,1.22,0,0,0,.3-.6,3.65,3.65,0,0,0,.12-1,3.25,3.25,0,0,0-.12-1,1.27,1.27,0,0,0-.32-.55,1.11,1.11,0,0,0-.54-.27,5.86,5.86,0,0,0-.94-.05H64.3Z"/><path class="cls-2" d="M74,19.46H72.73l-.49-1.28H70l-.5,1.28h-1.2l2.22-5.67h1.24Zm-2.11-2.24-.79-2.1-.76,2.1Z"/><path class="cls-2" d="M74.58,13.79h2.1a4,4,0,0,1,1.08.11,1.86,1.86,0,0,1,.86.54,2.38,2.38,0,0,1,.54.92,4,4,0,0,1,.19,1.34,3.71,3.71,0,0,1-.19,1.19,2.59,2.59,0,0,1-.6,1,2.09,2.09,0,0,1-.81.45,3.45,3.45,0,0,1-1,.12H74.58V13.79Zm1.15,1v3.76h.85a3.21,3.21,0,0,0,.69-.05,1.05,1.05,0,0,0,.47-.24,1.23,1.23,0,0,0,.3-.55,3.65,3.65,0,0,0,.12-1,3.25,3.25,0,0,0-.12-1,1.29,1.29,0,0,0-.33-.55,1.08,1.08,0,0,0-.53-.27,5.93,5.93,0,0,0-.94,0h-.49Z"/><path class="cls-2" d="M80.3,13.79h2.1a4,4,0,0,1,1.08.11,2,2,0,0,1,.85.54,2.51,2.51,0,0,1,.54.92,4,4,0,0,1,.19,1.34,3.81,3.81,0,0,1-.17,1.21,2.57,2.57,0,0,1-.61,1,2.07,2.07,0,0,1-.8.46,3.89,3.89,0,0,1-1,.11H80.31V13.79h0Zm1.14,1v3.76h.88a3.21,3.21,0,0,0,.69-.05,1.11,1.11,0,0,0,.47-.24,1.23,1.23,0,0,0,.3-.55,3.32,3.32,0,0,0,.11-1,3.6,3.6,0,0,0-.11-1,1.29,1.29,0,0,0-.33-.55,1.08,1.08,0,0,0-.53-.27,5.93,5.93,0,0,0-.94,0h-.5Z"/><path class="cls-2" d="M87.49,19.46V17.07l-2.07-3.28h1.33L88.09,16l1.31-2.24h1.3l-2.09,3.29v2.38Z"/><path class="cls-2" d="M90.45,19.46V18.38h1.09v1.09H90.45Z"/><path class="cls-2" d="M96.26,17.4l1.09.33a2.52,2.52,0,0,1-.84,1.38,2.69,2.69,0,0,1-3.37-.32,3,3,0,0,1-.72-2.13,3.13,3.13,0,0,1,.74-2.18,2.5,2.5,0,0,1,1.93-.78,2.34,2.34,0,0,1,1.69.61,2.24,2.24,0,0,1,.58,1l-1.13.27a1.17,1.17,0,0,0-1.2-.93,1.27,1.27,0,0,0-1,.45,2.21,2.21,0,0,0-.39,1.48A2.36,2.36,0,0,0,94,18.15a1.23,1.23,0,0,0,1,.46,1.11,1.11,0,0,0,.78-.29A1.68,1.68,0,0,0,96.26,17.4Z"/><path class="cls-2" d="M98.13,16.66a3.56,3.56,0,0,1,.26-1.48,2.45,2.45,0,0,1,.53-.74,2.23,2.23,0,0,1,.73-.49,3,3,0,0,1,1.22-.23,2.69,2.69,0,0,1,2,.78,3,3,0,0,1,.75,2.16,2.92,2.92,0,0,1-.74,2.15,3,3,0,0,1-4,0A2.94,2.94,0,0,1,98.13,16.66Zm1.18,0a2.08,2.08,0,0,0,.44,1.48,1.53,1.53,0,0,0,2.16.09h0l.09-.09a2.13,2.13,0,0,0,.44-1.48,2.12,2.12,0,0,0-.43-1.48,1.57,1.57,0,0,0-2.23,0h0l0,0a2.12,2.12,0,0,0-.41,1.48h0Z"/><path class="cls-2" d="M104.5,19.46V13.79h1.72l1,3.85,1-3.87H110v5.69h-1V15l-1.12,4.46h-1.11L105.59,15v4.46Z"/><path class="cls-3" d="M49.72,31.64,52,31.41a2.71,2.71,0,0,0,.84,1.69,2.48,2.48,0,0,0,1.71.57,2.63,2.63,0,0,0,1.71-.5,1.41,1.41,0,0,0,.57-1.12,1,1,0,0,0-.24-.7,1.93,1.93,0,0,0-.84-.49c-.28-.1-.9-.26-1.88-.5a6.23,6.23,0,0,1-2.65-1.15,3,3,0,0,1-1.07-2.34,3,3,0,0,1,.5-1.66,3.19,3.19,0,0,1,1.45-1.16,5.9,5.9,0,0,1,2.28-.4,4.87,4.87,0,0,1,3.3,1,3.43,3.43,0,0,1,1.17,2.57l-2.35.1A2,2,0,0,0,55.85,26a2.33,2.33,0,0,0-1.48-.39,2.61,2.61,0,0,0-1.6.42.82.82,0,0,0-.37.71.9.9,0,0,0,.35.71,6.09,6.09,0,0,0,2.16.78,11.39,11.39,0,0,1,2.53.84,3.33,3.33,0,0,1,1.29,1.18,3.65,3.65,0,0,1-.1,3.72,3.28,3.28,0,0,1-1.57,1.3,6.63,6.63,0,0,1-2.53.42,5,5,0,0,1-3.39-1A4.47,4.47,0,0,1,49.72,31.64Z"/><path class="cls-3" d="M61.16,35.42V23.81h8.62v2H63.5v2.58h5.84v2H63.5v3.16H70v2H61.16Z"/><path class="cls-3" d="M79.44,31.14l2.28.72A5.16,5.16,0,0,1,80,34.69,5.48,5.48,0,0,1,73.07,34a6.11,6.11,0,0,1-1.48-4.33,6.45,6.45,0,0,1,1.48-4.51,5.19,5.19,0,0,1,4-1.61,4.88,4.88,0,0,1,3.45,1.27A4.61,4.61,0,0,1,81.66,27l-2.33.56a2.39,2.39,0,0,0-2.46-2,2.64,2.64,0,0,0-2.1.92,4.54,4.54,0,0,0-.8,3,4.88,4.88,0,0,0,.79,3.14,2.56,2.56,0,0,0,2.06.93A2.37,2.37,0,0,0,78.43,33,3.48,3.48,0,0,0,79.44,31.14Z"/><path class="cls-3" d="M83.71,23.81h2.35v6.28A12.55,12.55,0,0,0,86.15,32a1.84,1.84,0,0,0,.72,1.14,2.45,2.45,0,0,0,1.55.44,2.37,2.37,0,0,0,1.51-.41,1.57,1.57,0,0,0,.61-1,12.94,12.94,0,0,0,.1-2V23.83H93v6.09a15.45,15.45,0,0,1-.19,3,3.43,3.43,0,0,1-.7,1.48,3.58,3.58,0,0,1-1.37.94,5.75,5.75,0,0,1-2.25.36A6.41,6.41,0,0,1,86,35.28a3.7,3.7,0,0,1-1.36-1A3.13,3.13,0,0,1,83.93,33a14,14,0,0,1-.23-3V23.81h0Z"/><path class="cls-3" d="M95.47,35.42V23.81h4.93a8.25,8.25,0,0,1,2.71.31,2.65,2.65,0,0,1,1.35,1.12,3.36,3.36,0,0,1,.5,1.83,3.14,3.14,0,0,1-.74,2.16,3.69,3.69,0,0,1-2.31,1.07,5.51,5.51,0,0,1,1.26,1,13.6,13.6,0,0,1,1.33,1.88l1.42,2.27h-2.81l-1.69-2.51a14.89,14.89,0,0,0-1.24-1.71,1.84,1.84,0,0,0-.7-.5,4,4,0,0,0-1.18-.13h-.5v4.86H95.46Zm2.35-6.71h1.75a8.75,8.75,0,0,0,2.11-.15,1.25,1.25,0,0,0,.66-.49,1.49,1.49,0,0,0,.24-.87,1.32,1.32,0,0,0-1.2-1.4H97.84v2.93Z"/><path class="cls-3" d="M107.21,35.42V23.81h8.63v2h-6.29v2.58h5.83v2h-5.83v3.16H116v2h-8.83Z"/><path class="cls-3" d="M118,23.81h4.29a8.22,8.22,0,0,1,2.21.22,3.87,3.87,0,0,1,1.76,1.07A5.12,5.12,0,0,1,127.4,27a8.83,8.83,0,0,1,.38,2.75,7.94,7.94,0,0,1-.36,2.47,5,5,0,0,1-1.25,2,4,4,0,0,1-1.65.93,6.94,6.94,0,0,1-2.08.25H118V23.81h0Zm2.34,2v7.68h1.76a6.8,6.8,0,0,0,1.42-.11,2.25,2.25,0,0,0,.94-.5,2.44,2.44,0,0,0,.62-1.12,7.66,7.66,0,0,0,.24-2.13,7.2,7.2,0,0,0-.24-2.07,2.73,2.73,0,0,0-.64-1.12,2.25,2.25,0,0,0-1.09-.54,10.38,10.38,0,0,0-1.93-.12h-1.07Z"/><path class="cls-1" d="M30.94,15.92c-2.11,0-4.82-1.78-4.83-1.78h0s-2.71,1.78-4.82,1.78h-7a10.79,10.79,0,0,1,1.23,4.22V31.78A8.9,8.9,0,0,0,19.75,38c4,2.65,5.62,2.63,6.36,3.39h0c.76-.76,2.36-.74,6.35-3.39a8.91,8.91,0,0,0,4.25-6.24V20.14a10.79,10.79,0,0,1,1.23-4.22Z"/><path class="cls-2" d="M31.78,25H31V23.91A4.92,4.92,0,0,0,26.11,19h0a4.93,4.93,0,0,0-4.93,4.93V25h-.73a.71.71,0,0,0-.71.7v8.35a.71.71,0,0,0,.71.71H31.78a.71.71,0,0,0,.71-.7V25.75a.71.71,0,0,0-.71-.71ZM27,29.86l.45,2.91a.24.24,0,0,1-.2.27H25.42a.23.23,0,0,1-.23-.24v0l.45-2.91a.26.26,0,0,0-.1-.23,1.31,1.31,0,0,1-.3-1.83,1.32,1.32,0,1,1,2.14,1.53,1.22,1.22,0,0,1-.3.3.27.27,0,0,0-.12.23h0ZM29.57,25H22.7V23.91a3.42,3.42,0,0,1,6.83,0V25h0Z"/></g></g></svg>