<svg xmlns="http://www.w3.org/2000/svg" viewBox="0 0 136.1 54"><defs><style>.cls-1{fill:#fff;}.cls-2{fill:#bbbaba;}.cls-3{fill:#969594;}.cls-4{fill:#efba44;}.cls-5{fill:#201600;}.cls-6{fill:#999;}</style></defs><title>Ресурс 1</title><g id="Слой_2" data-name="Слой 2"><g id="Слой_1-2" data-name="Слой 1"><path class="cls-1" d="M1.3,0H134.8a1.32,1.32,0,0,1,1.3,1.3h0V52.7a1.32,1.32,0,0,1-1.3,1.3H1.3A1.32,1.32,0,0,1,0,52.7H0V1.3A1.32,1.32,0,0,1,1.3,0Z"/><path class="cls-2" d="M100.2,39.53h-63a16.47,16.47,0,0,1,0-32.93h63a16.47,16.47,0,0,1,0,32.93M37.16,8a15.22,15.22,0,0,0,0,30.43h63A15.22,15.22,0,0,0,100.2,8Z"/><polygon class="cls-3" points="112.92 6.66 112.92 7.1 112.33 7.1 112.33 9.17 111.73 9.17 111.73 7.1 111.15 7.1 111.15 6.66 112.92 6.66"/><polygon class="cls-3" points="113.21 9.17 113.21 6.66 113.8 6.66 114.24 8.29 114.69 6.66 115.28 6.66 115.28 9.17 114.98 9.17 114.98 7.25 114.98 7.25 114.39 9.17 114.09 9.17 113.65 7.25 113.65 7.25 113.65 9.17 113.21 9.17"/><path class="cls-4" d="M37.16,40.86A17.73,17.73,0,1,1,54.89,23.13v.07h0A17.77,17.77,0,0,1,37.16,40.86m0-29.82a12.19,12.19,0,0,0-8.55,3.57,12.45,12.45,0,0,0-3.55,8.55,12.21,12.21,0,0,0,3.55,8.56,12.39,12.39,0,0,0,8.55,3.54,12.2,12.2,0,0,0,8.56-3.54,12.47,12.47,0,0,0,3.52-8.63A12.08,12.08,0,0,0,37.16,11h0"/><rect class="cls-4" x="56.37" y="2.67" width="1.33" height="1.33"/><rect class="cls-4" x="52.52" y="4" width="1.33" height="1.33"/><rect class="cls-5" x="50.02" y="6.66" width="1.33" height="1.33"/><rect class="cls-5" x="53.85" y="5.47" width="1.48" height="1.33"/><rect class="cls-5" x="48.69" y="5.47" width="1.33" height="1.19"/><rect class="cls-5" x="52.52" y="6.66" width="1.33" height="1.33"/><rect class="cls-5" x="52.52" y="2.67" width="2.51" height="1.33"/><rect class="cls-5" x="51.19" y="4" width="1.33" height="2.66"/><path class="cls-5" d="M51.19,8V9.31H49.86V8H47.64v.86h-1v1.24H48v1.33H46.64V10.09H45.3v2H44v1.33h-.89v1.34h-.89a92.21,92.21,0,0,0-4.57,8.55c-3-4-5.17-5.61-6.94-6.23-.89-.29-2.07.74-.61,2.36A27.67,27.67,0,0,1,36,29.51c.61,1.34,3.25,1.63,3.69.15a49.25,49.25,0,0,1,4.75-9.14V19.06h1V17.73h1.21V16.27H48V14.78H46.62V13.45H48v1.33h1.33V13.45h1V11.82H51.5v-1h1V8H51.19Z"/><path class="cls-3" d="M32.08,45.47h1v.72a1.65,1.65,0,0,1,1.48-.73,1.94,1.94,0,0,1,1.94,1.95,1.1,1.1,0,0,1,0,.26h0a2,2,0,0,1-1.77,2.23h-.1a1.65,1.65,0,0,1-1.48-.73v1.77H32.08Zm3.46,2.06h0a1.23,1.23,0,0,0-1.11-1.34h0a1.34,1.34,0,0,0-1.19,1.34h0a1.18,1.18,0,0,0,1,1.31,1.19,1.19,0,0,0,1.32-1.05,1.13,1.13,0,0,0,0-.26"/><path class="cls-3" d="M37.32,47.55h0a2.28,2.28,0,0,1,2.22-2.22,2.18,2.18,0,0,1,2.21,2.14h0v.08h0a2.22,2.22,0,0,1-4.43,0m3.55,0h0a1.34,1.34,0,1,0-2.67,0h0a1.34,1.34,0,0,0,1.34,1.33h0a1.23,1.23,0,0,0,1.33-1.11.81.81,0,0,0,0-.22"/><polygon class="cls-3" points="42.34 45.5 43.36 45.5 44.11 48.3 45.15 45.5 45.88 45.5 46.91 48.3 47.8 45.5 48.69 45.5 47.35 49.77 46.47 49.77 45.43 46.82 44.55 49.77 43.67 49.77 42.34 45.5"/><path class="cls-3" d="M49.27,47.55h0a2.17,2.17,0,0,1,2.07-2.22,2.06,2.06,0,0,1,2.08,2v0h0v.5H50.33a1.11,1.11,0,0,0,1.17,1,1.92,1.92,0,0,0,1.19-.44l.61.41a2.2,2.2,0,0,1-1.77.73,1.9,1.9,0,0,1-2.23-1.52,1.68,1.68,0,0,1,0-.55m3.08-.29a1.12,1.12,0,0,0-1-1.17,1,1,0,0,0-1.05,1,.66.66,0,0,0,0,.14h2Z"/><path class="cls-3" d="M54.29,45.47h1v.9a1.6,1.6,0,0,1,1.48-1v1h0a1.43,1.43,0,0,0-1.49,1.39.87.87,0,0,0,0,.23v1.63h-1V45.47Z"/><path class="cls-3" d="M57.42,47.55h0a2.16,2.16,0,0,1,2.07-2.22,2.06,2.06,0,0,1,2.07,2h0v.5H58.45a1.12,1.12,0,0,0,1.18,1,1.92,1.92,0,0,0,1.19-.44l.6.44a2.21,2.21,0,0,1-1.78.73,1.9,1.9,0,0,1-2.21-1.54,2.27,2.27,0,0,1,0-.52m3.08-.29a1.13,1.13,0,0,0-1.06-1.18,1.05,1.05,0,0,0-1,1.06.57.57,0,0,0,0,.13h2.1Z"/><path class="cls-3" d="M62.27,47.55h0a1.94,1.94,0,0,1,1.66-2.2l.26,0a1.64,1.64,0,0,1,1.48.74v-2.2h1.09V49.8H65.68v-.74a1.65,1.65,0,0,1-1.48.73,2,2,0,0,1-2-1.95,1.53,1.53,0,0,1,0-.3m3.4,0h0a1.23,1.23,0,0,0-1.12-1.34h0a1.14,1.14,0,0,0-1.2,1.06.88.88,0,0,0,0,.28h0a1.18,1.18,0,0,0,1,1.31,1.2,1.2,0,0,0,1.32-1.05,1.13,1.13,0,0,0,0-.26"/><path class="cls-3" d="M71.13,49.06v.63h-.9V43.75h1v2.37a1.64,1.64,0,0,1,1.48-.73,2,2,0,0,1,1.92,2h0v.18h0a2,2,0,0,1-1.79,2.21h-.13A1.73,1.73,0,0,1,71.13,49m2.51-1.48h0a1.23,1.23,0,0,0-1.11-1.34h0a1.34,1.34,0,0,0-1.19,1.34h0a1.19,1.19,0,0,0,2.36.26,1.13,1.13,0,0,0,0-.26"/><path class="cls-3" d="M75.27,50.82l.29-.73a.71.71,0,0,0,.61.14.6.6,0,0,0,.62-.43l-1.86-4.31h1l1.18,3.06,1-3.08h1.05L77.6,49.78A1.33,1.33,0,0,1,76.27,51a2.17,2.17,0,0,1-1-.15"/><path d="M58.37,18.63l1.85-.18a2.29,2.29,0,0,0,.67,1.34,2,2,0,0,0,1.33.43,2.12,2.12,0,0,0,1.36-.4,1.11,1.11,0,0,0,.53-.85.82.82,0,0,0-.2-.58,1.62,1.62,0,0,0-.68-.4c-.22-.08-.72-.21-1.51-.4a5.14,5.14,0,0,1-2.17-.91,2.47,2.47,0,0,1-.86-1.88,2.39,2.39,0,0,1,.45-1.34,2.57,2.57,0,0,1,1.17-.94,4.69,4.69,0,0,1,1.85-.32,4,4,0,0,1,2.67.77A2.66,2.66,0,0,1,65.77,15l-1.93.08a1.6,1.6,0,0,0-.54-1,1.92,1.92,0,0,0-1.21-.32,2.17,2.17,0,0,0-1.33.33.71.71,0,0,0-.31.58.73.73,0,0,0,.29.57,4.84,4.84,0,0,0,1.74.58,9,9,0,0,1,2,.68,2.69,2.69,0,0,1,1,.94,3,3,0,0,1-.08,3,2.57,2.57,0,0,1-1.27,1.05,5.24,5.24,0,0,1-2,.34,4.08,4.08,0,0,1-2.67-.82A3.57,3.57,0,0,1,58.37,18.63Z"/><path d="M71.16,19.52l1.79.3a3,3,0,0,1-1.11,1.51,3.2,3.2,0,0,1-1.85.51,3,3,0,0,1-2.67-1.17,3.78,3.78,0,0,1-.68-2.31,3.69,3.69,0,0,1,.88-2.66,2.91,2.91,0,0,1,2.23-1,3,3,0,0,1,2.38,1A4.37,4.37,0,0,1,73,18.82H68.53A1.83,1.83,0,0,0,69,20.05a1.35,1.35,0,0,0,1,.44,1.08,1.08,0,0,0,.76-.19A1.47,1.47,0,0,0,71.16,19.52Zm.11-1.82a1.73,1.73,0,0,0-.43-1.19A1.33,1.33,0,0,0,69,16.42h0l-.08.08a1.62,1.62,0,0,0-.37,1.16h2.67Z"/><path d="M80.1,16.92l-1.78.32a1.33,1.33,0,0,0-.4-.8,1.21,1.21,0,0,0-.82-.27,1.3,1.3,0,0,0-1.06.47,2.41,2.41,0,0,0-.41,1.54A2.78,2.78,0,0,0,76,19.89a1.31,1.31,0,0,0,1.09.5A1.25,1.25,0,0,0,78,20.1a1.82,1.82,0,0,0,.47-1l1.74.28a3.08,3.08,0,0,1-1.05,1.85,3.26,3.26,0,0,1-2.09.62,3.12,3.12,0,0,1-2.38-.94,3.65,3.65,0,0,1-.89-2.67,3.64,3.64,0,0,1,.89-2.66,3.18,3.18,0,0,1,2.4-.94,3.31,3.31,0,0,1,2,.53A3,3,0,0,1,80.1,16.92Z"/><path d="M85.59,21.68v-1a2.79,2.79,0,0,1-2.31,1.18,2.42,2.42,0,0,1-1.23-.31,1.77,1.77,0,0,1-.78-.84A3.69,3.69,0,0,1,81,19.19V14.84h1.78V18a9.3,9.3,0,0,0,.1,1.75,1,1,0,0,0,.36.5,1.14,1.14,0,0,0,.67.19,1.45,1.45,0,0,0,.83-.23,1.36,1.36,0,0,0,.5-.61,7.18,7.18,0,0,0,.13-1.85V14.89h1.79v6.77H85.61Z"/><path d="M90.51,21.68H88.74V14.89H90.4v1a2.87,2.87,0,0,1,.8-.9,1.5,1.5,0,0,1,.78-.21,2.33,2.33,0,0,1,1.18.33l-.56,1.56a1.6,1.6,0,0,0-.85-.28,1,1,0,0,0-.61.21,1.43,1.43,0,0,0-.41.75,10.23,10.23,0,0,0-.15,2.21v2.09h0Z"/><path d="M97.44,19.52l1.78.3a2.91,2.91,0,0,1-1.09,1.51,3.2,3.2,0,0,1-1.85.51,3,3,0,0,1-2.67-1.17,3.78,3.78,0,0,1-.68-2.31,3.69,3.69,0,0,1,.88-2.66,2.89,2.89,0,0,1,2.29-1,3,3,0,0,1,2.39,1,4.47,4.47,0,0,1,.84,3.08H94.87a1.89,1.89,0,0,0,.44,1.23,1.38,1.38,0,0,0,1,.44,1.06,1.06,0,0,0,.71-.23A1.46,1.46,0,0,0,97.44,19.52Zm.1-1.82a1.72,1.72,0,0,0-.4-1.19,1.33,1.33,0,0,0-1.83-.09h0l-.08.08a1.62,1.62,0,0,0-.37,1.16h2.67Z"/><path d="M106.77,21.68h-1.71v-1a2.61,2.61,0,0,1-1,.87,2.49,2.49,0,0,1-1.14.28,2.6,2.6,0,0,1-2-.95,3.81,3.81,0,0,1-.82-2.66,3.78,3.78,0,0,1,.81-2.67,2.67,2.67,0,0,1,2-.89,2.5,2.5,0,0,1,2,1V12.33h1.81v9.31h0v0Zm-4.83-3.5a3.07,3.07,0,0,0,.31,1.58,1.34,1.34,0,0,0,1.81.55,1.22,1.22,0,0,0,.45-.39,2.46,2.46,0,0,0,.43-1.58,2.63,2.63,0,0,0-.41-1.68,1.38,1.38,0,0,0-2-.19,1.21,1.21,0,0,0-.2.19,2.36,2.36,0,0,0-.47,1.51h0Z"/><path class="cls-6" d="M60.09,31.62V25.19h2.4a5.35,5.35,0,0,1,1,0,1.94,1.94,0,0,1,.78.29,1.67,1.67,0,0,1,.51.61,2.1,2.1,0,0,1-.33,2.27,2.52,2.52,0,0,1-1.88.62H60.9v2.66h-.83v0ZM61,28.26h1.62A1.8,1.8,0,0,0,63.76,28a1.08,1.08,0,0,0,.32-.87,1.14,1.14,0,0,0-.2-.69.94.94,0,0,0-.53-.39,3.48,3.48,0,0,0-.79,0H60.91v2.3h0Z"/><path class="cls-6" d="M64.68,31.62l2.46-6.43h1l2.66,6.43H69.69L69,29.67H66.28l-.7,1.95h-.9ZM66.53,29H68.7l-.59-1.76c-.21-.54-.36-1-.46-1.33a8.85,8.85,0,0,1-.34,1.22Z"/><path class="cls-6" d="M72.5,31.62V28.85L70,25.16h1l1.27,1.93c.23.37.45.73.65,1.09.2-.34.43-.72.71-1.14l1.22-1.88h1l-2.56,3.69v2.67h-.86v.1Z"/><path class="cls-6" d="M76.66,31.62V25.19H78l1.51,4.53c.14.4.25.72.31.94.07-.23.19-.57.35-1l1.53-4.46h1v6.43h-.82V26.28l-1.85,5.33h-.76l-1.9-5.43v5.47h-.75v0Z"/><path class="cls-6" d="M84.16,31.62V25.19H88.8V26H85v2h3.56v.75H85v2.19h4v.74H84.18Z"/><path class="cls-6" d="M90.11,31.62V25.19H91l3.38,5v-5h.82V31.6h-.88l-3.35-5v5h-.84Z"/><path class="cls-6" d="M98.24,31.62V26H96.1v-.76h5.08V26H99.09V31.6h-.85Z"/><path class="cls-6" d="M101.76,29.55l.8-.08a1.63,1.63,0,0,0,.25.78,1.42,1.42,0,0,0,.65.51,2.48,2.48,0,0,0,1,.18,2.23,2.23,0,0,0,.85-.14,1.16,1.16,0,0,0,.56-.41.83.83,0,0,0,.17-.54.81.81,0,0,0-.17-.54,1.29,1.29,0,0,0-.61-.38,11.43,11.43,0,0,0-1.15-.3,5.52,5.52,0,0,1-1.23-.4,1.71,1.71,0,0,1-.67-.61,1.43,1.43,0,0,1-.23-.8,1.57,1.57,0,0,1,1.08-1.52,3,3,0,0,1,1.19-.23,3.25,3.25,0,0,1,1.23.24,1.93,1.93,0,0,1,.84.68,2,2,0,0,1,.32,1h-.82a1.32,1.32,0,0,0-.37-.82,2.31,2.31,0,0,0-2.24,0,.84.84,0,0,0-.35.68.73.73,0,0,0,.24.61,3.34,3.34,0,0,0,1.33.45,8.56,8.56,0,0,1,1.42.41,1.86,1.86,0,0,1,.82.65,1.62,1.62,0,0,1,.27.91,1.74,1.74,0,0,1-.29,1,2,2,0,0,1-.8.69,2.9,2.9,0,0,1-1.23.24,3.7,3.7,0,0,1-1.47-.25,2,2,0,0,1-.92-.76A2.12,2.12,0,0,1,101.76,29.55Z"/><path class="cls-3" d="M82.63,49.94v-6h1.94A7.63,7.63,0,0,1,86,44a1.64,1.64,0,0,1,.87.61,1.91,1.91,0,0,1,.35,1.18,2,2,0,0,1-.2.93,1.79,1.79,0,0,1-.51.62,1.88,1.88,0,0,1-.61.28,7.26,7.26,0,0,1-1.23.08h-.84V50H82.6Zm1.23-5v1.71h.66a3.1,3.1,0,0,0,.91-.1.9.9,0,0,0,.39-1.38.81.81,0,0,0-.51-.26,4.31,4.31,0,0,0-.88,0h-.57Z"/><path class="cls-3" d="M88.89,46.91l-1-.18a1.58,1.58,0,0,1,.61-.94,2.22,2.22,0,0,1,1.33-.31,2.84,2.84,0,0,1,1.15.19,1.15,1.15,0,0,1,.53.47,2.29,2.29,0,0,1,.16,1v1.34a5.89,5.89,0,0,0,0,.84,2.6,2.6,0,0,0,.21.59H90.69a1.91,1.91,0,0,0-.1-.34v-.11a2.22,2.22,0,0,1-.62.43,1.92,1.92,0,0,1-.72.14,1.45,1.45,0,0,1-1.14-.36,1.32,1.32,0,0,1-.21-1.58,1.07,1.07,0,0,1,.5-.44,3.61,3.61,0,0,1,.92-.27,6.12,6.12,0,0,0,1.12-.28V47a.57.57,0,0,0-.16-.5,1,1,0,0,0-.61-.15.82.82,0,0,0-.51.12A.84.84,0,0,0,88.89,46.91Zm1.54.94-.7.17a2,2,0,0,0-.62.2.5.5,0,0,0-.22.4.59.59,0,0,0,.17.42.61.61,0,0,0,.47.17,1,1,0,0,0,.61-.2.81.81,0,0,0,.27-.39,2.62,2.62,0,0,0,0-.56v-.21Z"/><path class="cls-3" d="M91.94,45.59h1.23l1,3.08,1-3.08h1.2L94.87,49.8l-.28.77a2.62,2.62,0,0,1-.29.58,1.38,1.38,0,0,1-.28.31,1.35,1.35,0,0,1-.44.2,2.54,2.54,0,0,1-.61.07,3,3,0,0,1-.66-.07l-.14-.88a2.09,2.09,0,0,0,.5,0,.68.68,0,0,0,.61-.24,1.74,1.74,0,0,0,.3-.61Z"/><path class="cls-3" d="M98,49.94v-6h2a7.59,7.59,0,0,1,1.43.1,1.6,1.6,0,0,1,.87.61,1.85,1.85,0,0,1,.35,1.18,2,2,0,0,1-.2.93,1.79,1.79,0,0,1-.51.62,1.88,1.88,0,0,1-.61.28,7.26,7.26,0,0,1-1.23.08H99.2V50H98v0Zm1.23-5v1.71h.67a3.36,3.36,0,0,0,.94-.11.81.81,0,0,0,.37-.36.88.88,0,0,0-.05-1,.81.81,0,0,0-.5-.26,4.31,4.31,0,0,0-.88,0h-.57v0Z"/><path class="cls-3" d="M104.21,46.91l-1-.18a1.58,1.58,0,0,1,.61-.94,2.22,2.22,0,0,1,1.33-.31,2.81,2.81,0,0,1,1.15.19,1.15,1.15,0,0,1,.5.5,2.33,2.33,0,0,1,.16,1v1.37a5.89,5.89,0,0,0,0,.84,2.32,2.32,0,0,0,.22.59H106l-.1-.33v-.14a2,2,0,0,1-.62.43,1.75,1.75,0,0,1-.72.15,1.5,1.5,0,0,1-1-.36,1.35,1.35,0,0,1-.21-1.59,1.25,1.25,0,0,1,.5-.44,4.28,4.28,0,0,1,.93-.26,6.06,6.06,0,0,0,1.1-.26V47a.59.59,0,0,0-.16-.5,1.09,1.09,0,0,0-.61-.15.83.83,0,0,0-.51.13A.78.78,0,0,0,104.21,46.91Zm1.54.94-.7.17a2.25,2.25,0,0,0-.62.2.5.5,0,0,0-.22.4.59.59,0,0,0,.17.42.61.61,0,0,0,.47.17,1.12,1.12,0,0,0,.59-.17.79.79,0,0,0,.28-.39,2.62,2.62,0,0,0,0-.56v-.24h0Z"/><path class="cls-3" d="M107.83,49.94v-6H109v6Z"/></g></g></svg>