<svg xmlns="http://www.w3.org/2000/svg" xmlns:xlink="http://www.w3.org/1999/xlink" viewBox="0 0 135.9 54.2"><defs><style>.cls-1{fill:#fff;}.cls-2{fill:url(#Безымянный_градиент);}.cls-3{fill:url(#Безымянный_градиент_2);}.cls-4{fill:url(#Безымянный_градиент_3);}.cls-5{fill:url(#Безымянный_градиент_8);}.cls-6{fill:url(#Безымянный_градиент_9);}.cls-7{fill:#6a3736;}.cls-8{fill:url(#Безымянный_градиент_8-2);}.cls-10,.cls-9{fill:#333;stroke:#333;stroke-miterlimit:10;}.cls-9{stroke-width:0.5px;}</style><linearGradient id="Безымянный_градиент" x1="178.44" y1="31.85" x2="199.48" y2="71.02" gradientTransform="matrix(1, 0, 0, -1, -150.59, 70.91)" gradientUnits="userSpaceOnUse"><stop offset="0" stop-color="#636465"/><stop offset="0.03" stop-color="#676869"/><stop offset="0.27" stop-color="#828384"/><stop offset="0.51" stop-color="#969798"/><stop offset="0.75" stop-color="#a1a2a3"/><stop offset="1" stop-color="#a5a6a7"/></linearGradient><linearGradient id="Безымянный_градиент_2" x1="198.28" y1="43.08" x2="171.12" y2="61.06" gradientTransform="matrix(1, 0, 0, -1, -150.59, 70.91)" gradientUnits="userSpaceOnUse"><stop offset="0" stop-color="#c4c5c6"/><stop offset="0.1" stop-color="#dcdddd"/><stop offset="0.21" stop-color="#f0f0f0"/><stop offset="0.32" stop-color="#fbfbfb"/><stop offset="0.7" stop-color="#dfdfe0"/><stop offset="0.91" stop-color="#b9babb"/><stop offset="1" stop-color="#a5a6a7"/></linearGradient><linearGradient id="Безымянный_градиент_3" x1="205.15" y1="37.98" x2="176.49" y2="57.37" gradientTransform="matrix(1, 0, 0, -1, -150.59, 70.91)" gradientUnits="userSpaceOnUse"><stop offset="0" stop-color="#4c4c4e"/><stop offset="0.22" stop-color="#636365"/><stop offset="0.47" stop-color="#767778"/><stop offset="0.73" stop-color="#818283"/><stop offset="1" stop-color="#858687"/></linearGradient><linearGradient id="Безымянный_градиент_8" x1="177.34" y1="39.3" x2="201.85" y2="56.78" gradientTransform="matrix(1, 0, 0, -1, -150.59, 70.91)" gradientUnits="userSpaceOnUse"><stop offset="0" stop-color="#6a3736"/><stop offset="0.61" stop-color="#b24e51"/><stop offset="0.71" stop-color="#ac0335"/><stop offset="1" stop-color="#6b3f4e"/></linearGradient><radialGradient id="Безымянный_градиент_9" cx="186.06" cy="51.97" r="26.05" gradientTransform="matrix(1, 0, 0, -1, -150.59, 70.91)" gradientUnits="userSpaceOnUse"><stop offset="0" stop-color="#b24e51"/><stop offset="0.46" stop-color="#ac0335"/><stop offset="1" stop-color="#6b3f4e"/></radialGradient><linearGradient id="Безымянный_градиент_8-2" x1="170.25" y1="56.12" x2="191.93" y2="31.13" xlink:href="#Безымянный_градиент_8"/></defs><title>Ресурс 1</title><g id="Слой_2" data-name="Слой 2"><g id="Слой_1-2" data-name="Слой 1"><path class="cls-1" d="M1.3,0H134.6a1.32,1.32,0,0,1,1.3,1.3V52.9a1.32,1.32,0,0,1-1.3,1.3H1.3A1.32,1.32,0,0,1,0,52.9V1.3A1.32,1.32,0,0,1,1.3,0Z"/><path class="cls-2" d="M39.41,47.49S17.46,40.07,19.93,9.43A81.64,81.64,0,0,1,39.41,6.71,81.65,81.65,0,0,1,58.9,9.43C61.5,40,39.41,47.49,39.41,47.49Z"/><path class="cls-3" d="M39.41,47.49S17.46,40.07,19.93,9.43A81.64,81.64,0,0,1,39.41,6.71,81.65,81.65,0,0,1,58.9,9.43L57,11.25,39.41,45.54v2Z"/><path class="cls-1" d="M39.41,45.54S19.54,38.79,21.75,11.12A73.18,73.18,0,0,1,39.41,8.65a73.19,73.19,0,0,1,17.67,2.47C59.42,38.79,39.41,45.54,39.41,45.54Z"/><path class="cls-4" d="M21.75,10.86h0l-.13.26c-1.17,14.42,3.76,23,8.05,27.93A24.78,24.78,0,0,0,39.41,46h.26a27.83,27.83,0,0,0,9.88-6.89c4.28-4.68,9.22-13.36,8.05-27.8V11h-.13a70.67,70.67,0,0,0-18.06-2.6A73.11,73.11,0,0,0,21.75,10.86ZM39.67,8.78A77,77,0,0,1,57,11.26c.13,1.43.13,3,.13,4.28,0,11.69-4.29,19-8.19,23.13a25.91,25.91,0,0,1-9.48,6.75,27.57,27.57,0,0,1-9.61-6.75c-3.77-4.16-8-11.44-8-23.13,0-1.29.13-3,.25-4.28A88.71,88.71,0,0,1,39.68,8.78Z"/><path class="cls-5" d="M39.41,42.17s-16.62-6.12-14.8-29.23c0,0,7.42.65,14.8.65a140.75,140.75,0,0,0,14.81-.65C56.17,36.05,39.41,42.17,39.41,42.17Z"/><path class="cls-6" d="M39.52,40.09S25.13,34.77,26.81,14.77c0,0,6.37.49,12.73.49s12.6-.49,12.87-.49C54,34.89,39.52,40.09,39.52,40.09Z"/><path class="cls-7" d="M54.37,12.79a146.15,146.15,0,0,1-14.94.65c-7.42,0-14.81-.65-14.81-.65l2.08,2s6.36.49,12.73.49,12.6-.49,12.87-.49Z"/><path class="cls-8" d="M39.41,42.17s-16.62-6.12-14.8-29.23l2.08,2C25,34.89,39.41,40.22,39.41,40.22v2Z"/><polygon class="cls-1" points="51.49 17.62 41.24 35.8 36.56 35.8 30.97 23.73 35.78 23.73 39.03 31.65 47.08 17.62 51.49 17.62"/><path class="cls-9" d="M67.48,35.55a5.49,5.49,0,0,0-2.08-.39,1.65,1.65,0,0,0-2,1.29h0v.13c0,2.2,5,1.68,5,5.44,0,2.48-1.82,3.38-4.16,3.38A7.76,7.76,0,0,1,61.9,45L62,43.59a5.27,5.27,0,0,0,2.48.49,2.11,2.11,0,0,0,2.2-1.82c0-2.59-4.95-1.81-4.95-5.44,0-2.08,1.69-3.12,3.64-3.12a5.74,5.74,0,0,1,2.48.5Z"/><path class="cls-9" d="M70.59,33.86H77v1.29H72.28v3.37h4.29V40H72.28v3.77H77v1.43h-6.5V33.86Z"/><path class="cls-9" d="M87,35.67A4.93,4.93,0,0,0,84.62,35a4.5,4.5,0,0,0-4.28,4.68A4.59,4.59,0,0,0,84.49,44a7.77,7.77,0,0,0,2.48-.5l.13,1.56a4.43,4.43,0,0,1-2.6.49,5.48,5.48,0,0,1-6-4.95c0-.08,0-.16,0-.24v-.78a5.76,5.76,0,0,1,5.44-6h.5a5.26,5.26,0,0,1,2.47.49v1.56Z"/><path class="cls-9" d="M97.22,40.5c0,3.25-1.68,5-4.41,5s-4.29-1.72-4.29-5V33.73h1.69v6.49c0,2.21.64,3.77,2.72,3.77s2.73-1.43,2.73-3.77V33.73h1.69V40.5Z"/><path class="cls-9" d="M100,33.86h2.73c2.33,0,4.41.39,4.41,3.11a2.66,2.66,0,0,1-2.33,2.6h0a1.6,1.6,0,0,1,1,1.17l2.2,4.55h-1.81l-1.69-3.9a1.6,1.6,0,0,0-1.82-1h-1.17v5.07H100Zm1.56,4.8h1.43c1.56,0,2.47-.65,2.47-1.82s-.77-1.68-2.33-1.68h-1.56v3.51h0Z"/><path class="cls-9" d="M109.8,33.86h6.36v1.29h-4.67v3.37h4.28V40h-4.28v3.77h4.67v1.43H109.8V33.86Z"/><path class="cls-10" d="M92.8,13.59a7.43,7.43,0,0,0-3.37-.8c-1.43,0-3.12.49-3.12,2.33,0,3.51,7.92,2.73,7.92,8.71,0,4-3,5.44-6.63,5.44A16.52,16.52,0,0,1,84,28.5l.12-2.34a10.12,10.12,0,0,0,3.9.91c1.43,0,3.51-.91,3.51-2.86,0-4.15-7.92-2.85-7.92-8.7,0-3.25,2.6-4.95,5.84-4.95a10.44,10.44,0,0,1,3.9.78Z"/><path class="cls-10" d="M79,13.59a7.51,7.51,0,0,0-3.39-.8c-1.43,0-3.12.49-3.12,2.33,0,3.51,7.92,2.73,7.92,8.71,0,4-3,5.44-6.63,5.44a16.77,16.77,0,0,1-3.63-.77l.13-2.34a10,10,0,0,0,3.89.91c1.43,0,3.51-.91,3.51-2.86,0-4.15-7.92-2.85-7.92-8.7,0-3.25,2.6-4.95,5.85-4.95a10.42,10.42,0,0,1,3.89.78Z"/><path class="cls-10" d="M97.61,10.86l2.47-.25V27h7.43v2.21h-9.9V10.87Z"/></g></g></svg>